<svg xmlns="http://www.w3.org/2000/svg" viewBox="0 0 80 48" role="img" aria-label="AWS">
  <path fill="currentColor" d="M15.2 12.2c-2.6 0-4.9.7-7 2l1.6 3.6c1.6-1 3.2-1.5 4.9-1.5 2.5 0 3.8 1.1 3.8 3.3v.5c-6.8-.7-11.5 1.7-11.5 6.7 0 3.6 2.5 5.9 6.1 5.9 2.4 0 4.4-1 5.8-2.8l.5 2.3h4.9V19.7c0-5-3.2-7.5-9.1-7.5Zm3.3 12.4c0 2.3-1.9 4.2-4.2 4.2-1.4 0-2.3-.8-2.3-2.1 0-2 2.1-3 6.5-2.7v.6Zm8.8-11.9h5.8l3.5 13.6 4-13.6h5.2l4 13.6 3.5-13.6h5.8l-6.6 19.5h-5.4l-4-13.3-4 13.3h-5.4l-6.4-19.5Zm39.8-.5c2.5 0 4.7.5 6.6 1.6l-1.5 3.8a10 10 0 0 0-5.1-1.4c-1.8 0-2.7.6-2.7 1.7 0 1 .8 1.5 3.6 2.3 4.5 1.3 6.5 3 6.5 6.3 0 3.9-3.2 6.2-8.4 6.2-3 0-5.7-.7-7.8-2.1l1.6-3.8a12.3 12.3 0 0 0 6.1 1.8c2 0 3-.6 3-1.8 0-1.1-.8-1.6-3.8-2.5-4.3-1.3-6.3-3-6.3-6.1 0-3.8 3.1-6 8.2-6Z"/>
  <path fill="currentColor" d="M17 39.6c13.2 5.7 28.8 5.5 43.6-.5 1.3-.5 2.3 1 1.1 1.8-12.7 8.1-31.4 8.8-45.6 1.1-1.1-.6-.3-2.9.9-2.4Zm48.7-2.8c2.3-.2 5.5.5 6.2 1.3.7.9-.2 4.1-1.1 6.1-.3.7-1 .6-1 .1.2-1.7.7-5.1-.2-6-.9-.9-4.4-.5-6.1-.3-.5 0-.7-.7 0-1 .7-.1 1.4-.2 2.2-.2Z"/>
</svg>
