<svg xmlns="http://www.w3.org/2000/svg" viewBox="0 0 24 24" role="img" aria-label="Network">
  <path fill="currentColor" d="M12 3a9 9 0 1 0 0 18 9 9 0 0 0 0-18Zm0 2c.7.9 1.3 1.9 1.7 3h-3.4c.4-1.1 1-2.1 1.7-3ZM5.3 10h3.1a13 13 0 0 0 0 4H5.3a7 7 0 0 1 0-4Zm.9-2A7.1 7.1 0 0 1 9 5.8 12 12 0 0 0 8.3 8H6.2Zm2.8 10.2A7.1 7.1 0 0 1 6.2 16h2.1c.2.8.4 1.5.7 2.2ZM12 19c-.7-.9-1.3-1.9-1.7-3h3.4c-.4 1.1-1 2.1-1.7 3Zm2.2-5H9.8a10.7 10.7 0 0 1 0-4h4.4a10.7 10.7 0 0 1 0 4Zm.8 4.2c.3-.7.5-1.4.7-2.2h2.1a7.1 7.1 0 0 1-2.8 2.2Zm3.7-4.2h-3.1a13 13 0 0 0 0-4h3.1a7 7 0 0 1 0 4ZM15.7 8c-.2-.8-.4-1.5-.7-2.2A7.1 7.1 0 0 1 17.8 8h-2.1Z"/>
</svg>
